<?xml version="1.0" encoding="UTF-8"?>
<svg width="29px" height="30px" viewBox="0 0 29 30" version="1.1" xmlns="http://www.w3.org/2000/svg" xmlns:xlink="http://www.w3.org/1999/xlink">
    <!-- Generator: Sketch 58 (84663) - https://sketch.com -->
    <title>chat</title>
    <desc>Created with Sketch.</desc>
    <g id="sources" stroke="none" stroke-width="1" fill="none" fill-rule="evenodd">
        <g id="Compliant-LP-Commodities-GOLD" transform="translate(-1141.000000, -652.000000)" fill="#ffba1c">
            <g id="CORE-FEATURES">
                <g id="Why-invest" transform="translate(0.000000, 602.000000)">
                    <g id="Group-15-Copy" transform="translate(1039.000000, 4.000000)">
                        <g id="item-1" transform="translate(0.086111, 0.500000)">
                            <g id="chat" transform="translate(102.000000, 46.000000)">
                                <path d="M25.5349735,0 L9.05643994,0 C7.69898698,0 6.59141341,1.11984931 6.59141341,2.49234754 L6.59141341,4.99835178 L2.47178003,4.99835178 C1.10757356,4.99835178 0,6.11820108 0,7.49752767 L0,19.1535201 C0,20.5328467 1.10757356,21.652696 2.47178003,21.652696 L3.3024602,21.652696 L3.3024602,28.1669414 C3.3024602,28.5083588 3.50506512,28.8156346 3.8224795,28.9385449 C3.92378196,28.979515 4.02508442,29 4.12638688,29 C4.34925229,29 4.56536421,28.9112315 4.72744814,28.7405227 L11.366136,21.6458677 L18.9368066,21.6458677 C19.6054028,21.6458677 20.1997106,21.3522486 20.6521949,20.9015776 L23.2793054,23.7012008 C23.4413893,23.8719096 23.6575012,23.9606781 23.8803666,23.9606781 C23.9816691,23.9606781 24.0829715,23.9401931 24.184274,23.899223 C24.4949349,23.7763127 24.7042933,23.469037 24.7042933,23.1276195 L24.7042933,16.6475159 L25.5349735,16.6475159 C26.8924264,16.6475159 28,15.5276666 28,14.1551684 L28,2.49234754 C27.9932465,1.11984931 26.8924264,0 25.5349735,0 Z M18.9368066,19.9797504 L10.9811867,19.9797504 C10.7042933,19.9797504 10.4679209,20.1299741 10.3193439,20.3416529 L4.95031356,26.0706381 L4.95031356,20.8469508 C4.95031356,20.8401224 4.94356006,20.8332941 4.94356006,20.8264657 C4.94356006,20.8196374 4.95031356,20.812809 4.95031356,20.8059807 C4.95031356,20.3484813 4.5788712,19.9729221 4.12638688,19.9729221 L2.47178003,19.9729221 C2.01929571,19.9729221 1.64785335,19.5973628 1.64785335,19.1398634 L1.64785335,7.49752767 C1.64785335,7.04002826 2.01929571,6.66446904 2.47178003,6.66446904 L6.59141341,6.66446904 L6.59141341,14.1619967 C6.59141341,15.5344949 7.69898698,16.6543442 9.05643994,16.6543442 L16.6743849,16.6543442 L19.5378678,19.7066164 C19.3825374,19.8704968 19.173179,19.9797504 18.9368066,19.9797504 Z M26.3521466,14.1619967 C26.3521466,14.6194961 25.9874578,14.988227 25.5349735,14.988227 L23.8803666,14.988227 C23.4278823,14.988227 23.0564399,15.3637862 23.0564399,15.8212856 L23.0564399,21.0449729 L17.6266281,15.2477043 L17.6198746,15.2408759 C17.5658466,15.1862491 17.5050651,15.1521074 17.4375301,15.1111373 C17.4105162,15.0906522 17.3835022,15.0633388 17.3497347,15.0565105 C17.3227207,15.0428538 17.2957067,15.0496821 17.2686927,15.0360254 C17.1944042,15.008712 17.1133623,14.988227 17.0323203,14.988227 L17.0255668,14.988227 L9.05643994,14.988227 C8.60395562,14.988227 8.23926676,14.6194961 8.23926676,14.1619967 L8.23926676,2.49234754 C8.23926676,2.03484813 8.60395562,1.66611726 9.05643994,1.66611726 L25.5349735,1.66611726 C25.9874578,1.66611726 26.3521466,2.03484813 26.3521466,2.49234754 L26.3521466,14.1619967 L26.3521466,14.1619967 Z" id="Shape"></path>
                            </g>
                        </g>
                    </g>
                </g>
            </g>
        </g>
    </g>
</svg>
