<?xml version="1.0" encoding="UTF-8"?>
<svg width="25px" height="26px" viewBox="0 0 25 26" version="1.1" xmlns="http://www.w3.org/2000/svg" xmlns:xlink="http://www.w3.org/1999/xlink">
    <!-- Generator: Sketch 58 (84663) - https://sketch.com -->
    <title>Icon</title>
    <desc>Created with Sketch.</desc>
    <g id="sources" stroke="none" stroke-width="1" fill="none" fill-rule="evenodd" stroke-linecap="round">
        <g id="Compliant-LP-Commodities-GOLD" transform="translate(-269.000000, -653.000000)" stroke="#ffba1c" stroke-width="2">
            <g id="CORE-FEATURES">
                <g id="Why-invest" transform="translate(0.000000, 602.000000)">
                    <g id="Group-13" transform="translate(160.000000, 52.000000)">
                        <g id="Icon" transform="translate(110.000000, 0.000000)">
                            <path d="M22.5793244,19.0682902 C22.5793244,15.3507049 17.5563488,12.3365829 11.3598122,12.3365829 C5.16327561,12.3365829 0.1403,15.3507049 0.1403,19.0682902" id="Stroke-13"></path>
                            <path d="M11.3598122,12.3414634 C14.767739,12.3414634 17.5305439,9.57865854 17.5305439,6.17073171 C17.5305439,2.76280488 14.767739,3.49054119e-13 11.3598122,3.49054119e-13 C7.95188537,3.49054119e-13 5.18908049,2.76280488 5.18908049,6.17073171 C5.18908049,9.57865854 7.95188537,12.3414634 11.3598122,12.3414634 L11.3598122,12.3414634 Z" id="Stroke-15"></path>
                            <path d="M22.4390244,19.0682902 L22.4390244,22.7510951 C22.4390244,23.0798268 22.3273902,23.5560951 22.0020244,23.5560951 L0.717487805,23.5560951 C0.398853659,23.5560951 2.22044605e-13,23.0759 2.22044605e-13,22.7510951 L2.22044605e-13,19.0682902" id="Stroke-17"></path>
                        </g>
                    </g>
                </g>
            </g>
        </g>
    </g>
</svg>
