<?xml version="1.0" encoding="UTF-8"?>
<svg width="66px" height="51px" viewBox="0 0 66 51" version="1.1" xmlns="http://www.w3.org/2000/svg" xmlns:xlink="http://www.w3.org/1999/xlink">
    <!-- Generator: Sketch 58 (84663) - https://sketch.com -->
    <title>Mastercard-logo</title>
    <desc>Created with Sketch.</desc>
    <g id="sources" stroke="none" stroke-width="1" fill="none" fill-rule="evenodd">
        <g id="Compliant-LP-Indices" transform="translate(-541.000000, -3492.000000)" fill-rule="nonzero">
            <g id="footer/desktop" transform="translate(-1.000000, 3459.000000)">
                <g id="footer">
                    <g id="Group" transform="translate(0.000000, 0.316503)">
                        <g id="Group-22" transform="translate(0.000000, 0.683497)">
                            <g id="Mastercard-logo" transform="translate(542.000000, 32.000000)">
                                <g id="g15" transform="translate(3.000000, 43.000000)" fill="#FFFFFF">
                                    <path d="M9,7.84 L9,4.34909091 C9,3.01090909 8.20754717,2.13818182 6.8490566,2.13818182 C6.16981132,2.13818182 5.43396226,2.37090909 4.9245283,3.12727273 C4.52830189,2.48727273 3.96226415,2.13818182 3.11320755,2.13818182 C2.54716981,2.13818182 1.98113208,2.31272727 1.52830189,2.95272727 L1.52830189,2.25454545 L0.339622642,2.25454545 L0.339622642,7.84 L1.52830189,7.84 L1.52830189,4.75636364 C1.52830189,3.76727273 2.03773585,3.30181818 2.83018868,3.30181818 C3.62264151,3.30181818 4.01886792,3.82545455 4.01886792,4.75636364 L4.01886792,7.84 L5.20754717,7.84 L5.20754717,4.75636364 C5.20754717,3.76727273 5.77358491,3.30181818 6.50943396,3.30181818 C7.30188679,3.30181818 7.69811321,3.82545455 7.69811321,4.75636364 L7.69811321,7.84 L9,7.84 L9,7.84 Z M26.6037736,2.25454545 L24.6792453,2.25454545 L24.6792453,0.567272727 L23.490566,0.567272727 L23.490566,2.25454545 L22.4150943,2.25454545 L22.4150943,3.36 L23.490566,3.36 L23.490566,5.92 C23.490566,7.2 24,7.95636364 25.3584906,7.95636364 C25.8679245,7.95636364 26.4339623,7.78181818 26.8301887,7.54909091 L26.490566,6.50181818 C26.1509434,6.73454545 25.754717,6.79272727 25.4716981,6.79272727 C24.9056604,6.79272727 24.6792453,6.44363636 24.6792453,5.86181818 L24.6792453,3.36 L26.6037736,3.36 L26.6037736,2.25454545 L26.6037736,2.25454545 Z M36.6792453,2.13818182 C36,2.13818182 35.5471698,2.48727273 35.2641509,2.95272727 L35.2641509,2.25454545 L34.0754717,2.25454545 L34.0754717,7.84 L35.2641509,7.84 L35.2641509,4.69818182 C35.2641509,3.76727273 35.6603774,3.24363636 36.3962264,3.24363636 C36.6226415,3.24363636 36.9056604,3.30181818 37.1320755,3.36 L37.4716981,2.19636364 C37.245283,2.13818182 36.9056604,2.13818182 36.6792453,2.13818182 L36.6792453,2.13818182 L36.6792453,2.13818182 Z M21.4528302,2.72 C20.8867925,2.31272727 20.0943396,2.13818182 19.245283,2.13818182 C17.8867925,2.13818182 16.9811321,2.83636364 16.9811321,3.94181818 C16.9811321,4.87272727 17.6603774,5.39636364 18.8490566,5.57090909 L19.4150943,5.62909091 C20.0377358,5.74545455 20.3773585,5.92 20.3773585,6.21090909 C20.3773585,6.61818182 19.9245283,6.90909091 19.1320755,6.90909091 C18.3396226,6.90909091 17.7169811,6.61818182 17.3207547,6.32727273 L16.754717,7.25818182 C17.3773585,7.72363636 18.2264151,7.95636364 19.0754717,7.95636364 C20.6603774,7.95636364 21.5660377,7.2 21.5660377,6.15272727 C21.5660377,5.16363636 20.8301887,4.64 19.6981132,4.46545455 L19.1320755,4.40727273 C18.6226415,4.34909091 18.2264151,4.23272727 18.2264151,3.88363636 C18.2264151,3.47636364 18.6226415,3.24363636 19.245283,3.24363636 C19.9245283,3.24363636 20.6037736,3.53454545 20.9433962,3.70909091 L21.4528302,2.72 L21.4528302,2.72 Z M53.0377358,2.13818182 C52.3584906,2.13818182 51.9056604,2.48727273 51.6226415,2.95272727 L51.6226415,2.25454545 L50.4339623,2.25454545 L50.4339623,7.84 L51.6226415,7.84 L51.6226415,4.69818182 C51.6226415,3.76727273 52.0188679,3.24363636 52.754717,3.24363636 C52.9811321,3.24363636 53.2641509,3.30181818 53.490566,3.36 L53.8301887,2.19636364 C53.6037736,2.13818182 53.2641509,2.13818182 53.0377358,2.13818182 L53.0377358,2.13818182 L53.0377358,2.13818182 Z M37.8679245,5.04727273 C37.8679245,6.73454545 39,7.95636364 40.754717,7.95636364 C41.5471698,7.95636364 42.1132075,7.78181818 42.6792453,7.31636364 L42.1132075,6.32727273 C41.6603774,6.67636364 41.2075472,6.85090909 40.6981132,6.85090909 C39.7358491,6.85090909 39.0566038,6.15272727 39.0566038,5.04727273 C39.0566038,4 39.7358491,3.30181818 40.6981132,3.24363636 C41.2075472,3.24363636 41.6603774,3.41818182 42.1132075,3.76727273 L42.6792453,2.77818182 C42.1132075,2.31272727 41.5471698,2.13818182 40.754717,2.13818182 C39,2.13818182 37.8679245,3.36 37.8679245,5.04727273 L37.8679245,5.04727273 L37.8679245,5.04727273 Z M48.8490566,5.04727273 L48.8490566,2.25454545 L47.6603774,2.25454545 L47.6603774,2.95272727 C47.2641509,2.42909091 46.6981132,2.13818182 45.9622642,2.13818182 C44.4339623,2.13818182 43.245283,3.36 43.245283,5.04727273 C43.245283,6.73454545 44.4339623,7.95636364 45.9622642,7.95636364 C46.754717,7.95636364 47.3207547,7.66545455 47.6603774,7.14181818 L47.6603774,7.84 L48.8490566,7.84 L48.8490566,5.04727273 Z M44.490566,5.04727273 C44.490566,4.05818182 45.1132075,3.24363636 46.1320755,3.24363636 C47.0943396,3.24363636 47.7735849,4 47.7735849,5.04727273 C47.7735849,6.03636364 47.0943396,6.85090909 46.1320755,6.85090909 C45.1132075,6.79272727 44.490566,6.03636364 44.490566,5.04727273 L44.490566,5.04727273 Z M30.2830189,2.13818182 C28.6981132,2.13818182 27.5660377,3.30181818 27.5660377,5.04727273 C27.5660377,6.79272727 28.6981132,7.95636364 30.3396226,7.95636364 C31.1320755,7.95636364 31.9245283,7.72363636 32.5471698,7.2 L31.9811321,6.32727273 C31.5283019,6.67636364 30.9622642,6.90909091 30.3962264,6.90909091 C29.6603774,6.90909091 28.9245283,6.56 28.754717,5.57090909 L32.7735849,5.57090909 C32.7735849,5.39636364 32.7735849,5.28 32.7735849,5.10545455 C32.8301887,3.30181818 31.8113208,2.13818182 30.2830189,2.13818182 L30.2830189,2.13818182 L30.2830189,2.13818182 Z M30.2830189,3.18545455 C31.0188679,3.18545455 31.5283019,3.65090909 31.6415094,4.52363636 L28.8113208,4.52363636 C28.9245283,3.76727273 29.4339623,3.18545455 30.2830189,3.18545455 L30.2830189,3.18545455 Z M59.7735849,5.04727273 L59.7735849,0.0436363636 L58.5849057,0.0436363636 L58.5849057,2.95272727 C58.1886792,2.42909091 57.6226415,2.13818182 56.8867925,2.13818182 C55.3584906,2.13818182 54.1698113,3.36 54.1698113,5.04727273 C54.1698113,6.73454545 55.3584906,7.95636364 56.8867925,7.95636364 C57.6792453,7.95636364 58.245283,7.66545455 58.5849057,7.14181818 L58.5849057,7.84 L59.7735849,7.84 L59.7735849,5.04727273 Z M55.4150943,5.04727273 C55.4150943,4.05818182 56.0377358,3.24363636 57.0566038,3.24363636 C58.0188679,3.24363636 58.6981132,4 58.6981132,5.04727273 C58.6981132,6.03636364 58.0188679,6.85090909 57.0566038,6.85090909 C56.0377358,6.79272727 55.4150943,6.03636364 55.4150943,5.04727273 L55.4150943,5.04727273 Z M15.6792453,5.04727273 L15.6792453,2.25454545 L14.490566,2.25454545 L14.490566,2.95272727 C14.0943396,2.42909091 13.5283019,2.13818182 12.7924528,2.13818182 C11.2641509,2.13818182 10.0754717,3.36 10.0754717,5.04727273 C10.0754717,6.73454545 11.2641509,7.95636364 12.7924528,7.95636364 C13.5849057,7.95636364 14.1509434,7.66545455 14.490566,7.14181818 L14.490566,7.84 L15.6792453,7.84 L15.6792453,5.04727273 Z M11.2641509,5.04727273 C11.2641509,4.05818182 11.8867925,3.24363636 12.9056604,3.24363636 C13.8679245,3.24363636 14.5471698,4 14.5471698,5.04727273 C14.5471698,6.03636364 13.8679245,6.85090909 12.9056604,6.85090909 C11.8867925,6.79272727 11.2641509,6.03636364 11.2641509,5.04727273 Z" id="XMLID_1775_"></path>
                                </g>
                                <g id="XMLID_328_">
                                    <rect id="rect19" fill="#FF5F00" x="24.0701805" y="4.52361839" width="17.8031325" height="32.0584386"></rect>
                                    <path d="M25.2005324,20.5528326 C25.2005324,14.039192 28.252498,8.26187602 32.9434821,4.52361272 C29.4958914,1.80487578 25.1440146,0.162305549 20.3965126,0.162305549 C9.14945426,0.162305549 0.0500754282,9.28140237 0.0500754282,20.5528326 C0.0500754282,31.8242628 9.14945426,40.9433596 20.3965126,40.9433596 C25.1440146,40.9433596 29.4958914,39.3007894 32.9434821,36.5820525 C28.252498,32.9004295 25.2005324,27.0664732 25.2005324,20.5528326 Z" id="XMLID_330_" fill="#EB001B"></path>
                                    <path d="M65.8934067,20.5528326 C65.8934067,31.8242628 56.7940279,40.9433596 45.5469696,40.9433596 C40.7994676,40.9433596 36.4475907,39.3007894 33,36.5820525 C37.747502,32.8437892 40.7429497,27.0664732 40.7429497,20.5528326 C40.7429497,14.039192 37.6909841,8.26187602 33,4.52361272 C36.4475907,1.80487578 40.7994676,0.162305549 45.5469696,0.162305549 C56.7940279,0.162305549 65.8934067,9.33804272 65.8934067,20.5528326 Z" id="path22" fill="#F79E1B"></path>
                                </g>
                            </g>
                        </g>
                    </g>
                </g>
            </g>
        </g>
    </g>
</svg>