<?xml version="1.0" encoding="UTF-8"?>
<svg width="30px" height="30px" viewBox="0 0 30 30" version="1.1" xmlns="http://www.w3.org/2000/svg" xmlns:xlink="http://www.w3.org/1999/xlink">
    <!-- Generator: Sketch 58 (84663) - https://sketch.com -->
    <title>planet-earth</title>
    <desc>Created with Sketch.</desc>
    <g id="sources" stroke="none" stroke-width="1" fill="none" fill-rule="evenodd">
        <g id="Compliant-LP-Commodities-GOLD" transform="translate(-559.000000, -650.000000)" fill-rule="nonzero">
            <g id="CORE-FEATURES">
                <g id="Why-invest" transform="translate(0.000000, 602.000000)">
                    <g id="Group-14" transform="translate(452.000000, 0.000000)">
                        <g id="item-2" transform="translate(0.098611, 0.500000)">
                            <g id="planet-earth" transform="translate(107.901389, 48.500000)">
                                <path d="M13.9804848,0 C6.27157576,0 0,6.27157576 0,13.9804848 C0,21.6893939 6.27157576,27.9609697 13.9804848,27.9609697 C21.6893939,27.9609697 27.9609697,21.6893939 27.9609697,13.9804848 C27.9609697,6.27157576 21.6893232,0 13.9804848,0 Z M21.9955556,3.85466667 C22.6907475,4.40611111 23.3278182,5.02755556 23.8965859,5.70811111 C23.5948081,5.65536364 23.312404,5.66094949 23.0477475,5.72571717 C22.5356869,5.85093939 22.1274949,6.19337374 21.8674343,6.71575758 C21.8059192,6.83928283 21.6791414,6.91055556 21.5428182,6.89570707 C21.3818182,6.87880808 21.257303,6.74920202 21.253202,6.59428283 C21.2255556,5.54484848 21.6824646,4.466 21.9955556,3.85466667 Z M5.07881818,4.6250202 C6.19309091,3.56434343 7.49593939,2.70030303 8.93122222,2.08854545 C9.52339394,2.49355556 11.1587778,3.68984848 12.3670909,5.31158586 C12.5153636,5.51055556 12.5651414,5.76227273 12.503697,6.00225253 C12.4422525,6.24244444 12.2773636,6.43957576 12.0513838,6.54294949 C10.7801414,7.12472727 9.09554545,8.0270202 8.28976768,9.02208081 C8.10310101,9.25272727 7.80160606,9.35574747 7.52118182,9.28461616 C6.44586869,9.01182828 5.58189899,9.33736364 5.08836364,10.2010505 C4.4650101,11.2917071 5.334,12.3530909 6.10074747,13.2896061 C6.188,13.3961616 6.27560606,13.5032828 6.36158586,13.6106162 C5.55658586,13.1326364 4.94122222,12.5143737 4.52850505,11.7641717 C3.81634343,10.4693131 3.34013131,8.18243434 5.07881818,4.6250202 Z M1.06060606,13.9804848 C1.06060606,11.4446465 1.79546465,9.07751515 3.06267677,7.07975758 C2.51794949,9.46385859 2.99041414,11.1683939 3.59920202,12.2753838 C4.24864646,13.4557677 5.28952525,14.3613838 6.69306061,14.9671313 C6.98189899,15.0917879 7.1979798,15.3449192 7.27116162,15.6447172 C7.27116162,15.6447172 7.30156566,15.7753838 7.31457576,15.8401515 C7.41186869,16.3233636 7.48554545,17.0427374 7.37856566,17.9617172 C7.22124242,19.3190808 7.82465657,20.6511313 8.95314141,21.4379596 L10.0090808,22.1747273 C9.94318182,22.9272626 9.85175758,24.8272323 10.3980404,26.3946667 C5.01122222,24.837697 1.06060606,19.8619697 1.06060606,13.9804848 Z M26.5357273,16.1412222 C26.5042626,15.584404 26.2374141,15.0637879 25.8036263,14.7128687 C25.3748586,14.3659798 24.8178283,14.2154444 24.2754343,14.2996566 L24.2294747,14.3065859 C23.8154848,14.3670404 23.4028384,14.2610505 23.0681111,14.0081313 C22.7275859,13.7506869 22.5090303,13.3745253 22.4528182,12.9489394 C22.3910202,12.4806465 22.3691717,12.0324343 22.3878384,11.6166768 C22.4010606,11.3240909 22.1744444,11.0762626 21.8819293,11.0631111 C21.5892727,11.0497475 21.3414444,11.2764343 21.3283636,11.5690202 C21.3068687,12.0467879 21.331404,12.5577172 21.4013333,13.0877374 C21.4950202,13.797 21.859798,14.4243131 22.4285657,14.8542121 C22.9913232,15.2796566 23.6852424,15.4577677 24.3829091,15.3560202 L24.4385556,15.3476061 C24.6894242,15.3087172 24.9372525,15.376101 25.1366465,15.5374545 C25.338303,15.7005051 25.4622525,15.9423939 25.4768889,16.2009697 C25.5285051,17.1146465 25.7242929,17.9085455 26.0587374,18.5663333 C24.2045859,23.433101 19.4901919,26.9002929 13.9804848,26.9002929 C13.4749293,26.9002929 12.9763737,26.870101 12.4858081,26.8133232 C12.6620101,26.6339394 12.8725758,26.4175758 13.1217475,26.1587879 C13.3248889,25.947798 13.3184545,25.6120808 13.1074646,25.4090101 C12.8964747,25.2059394 12.5606869,25.212303 12.3576869,25.4232929 C11.9895859,25.8056768 11.7062626,26.0945152 11.496404,26.3057879 C10.7687576,24.5987071 11.0911111,22.016202 11.0947879,21.9874242 C11.1204545,21.7912121 11.0346869,21.5970505 10.8724141,21.4837778 L9.55994949,20.5679798 C8.7519798,20.0046566 8.31981818,19.0527273 8.43217172,18.0839697 C8.52013131,17.3274747 8.50832323,16.5866768 8.40226263,15.9094444 C9.33531313,15.6581515 10.2410707,15.5255758 10.8732626,15.4572727 C11.3380202,15.4073535 11.796202,15.5616364 12.1292323,15.8810909 C12.8979596,16.6188485 14.0882424,17.4790707 15.6669192,18.4378586 C16.1353535,18.7223838 16.4572121,19.195697 16.5497677,19.7365354 C16.6420404,20.2755354 16.4968081,20.8268384 16.1512626,21.2490303 C15.6802121,21.8245152 15.1040909,22.4863333 14.4390202,23.216101 C14.2417475,23.4326061 14.257303,23.7679697 14.4737374,23.9652424 C14.5754141,24.0579394 14.7032525,24.1036162 14.8308081,24.1036162 C14.9747677,24.1036162 15.1182323,24.0453535 15.2228788,23.9305253 C15.9006061,23.186899 16.4890303,22.5107273 16.9719596,21.9207475 C17.5121616,21.2607677 17.7392727,20.3994141 17.595101,19.5575758 C17.4506465,18.713899 16.9484141,17.9753636 16.2173737,17.5313939 C14.7260909,16.6257071 13.5664242,15.7904444 12.8633838,15.1158283 C12.303596,14.5789495 11.5369192,14.319101 10.7593535,14.4028182 C10.1194545,14.4719697 9.21440404,14.6033434 8.26608081,14.8484141 C8.0740404,14.0261616 7.46949495,13.2873434 6.92130303,12.6178182 C6.21246465,11.7520101 5.76594949,11.152697 6.0090404,10.7273232 C6.16593939,10.4528384 6.46630303,10.1111818 7.26027273,10.3127677 C7.94005051,10.4851515 8.66776768,10.2405758 9.11385859,9.68955556 C9.64161616,9.03791919 10.8415152,8.2629697 12.492596,7.50739394 C13.0112323,7.27010101 13.3897273,6.81736364 13.5310707,6.26535354 C13.6723434,5.71362626 13.5580808,5.1350303 13.2175556,4.6779798 C12.2079293,3.32287879 10.9551414,2.26389899 10.1338081,1.64542424 C11.3493333,1.26558586 12.6413636,1.06067677 13.9803434,1.06067677 C16.6213232,1.06067677 19.0793131,1.85775758 21.1276263,3.22318182 C20.763697,3.90147475 20.1566768,5.24717172 20.1929495,6.62228283 C20.2109091,7.30708081 20.7434747,7.87818182 21.4317374,7.95058586 C21.4795354,7.95560606 21.5271919,7.95808081 21.5746364,7.95808081 C22.0943333,7.95808081 22.5814343,7.66132323 22.8168182,7.18857576 C22.9950707,6.83058586 23.2243737,6.77444444 23.2997475,6.7559899 C23.5363333,6.69815152 24.0772424,6.71186869 25.0837576,7.41384848 C24.8675354,7.41759596 24.6164545,7.4090404 24.3439495,7.37545455 C23.9395051,7.32560606 23.5383838,7.42678788 23.2141212,7.65990909 C23.0015758,7.81256566 22.7997778,7.99166667 22.614101,8.19212121 C22.4151313,8.40707071 22.428,8.74257576 22.6428788,8.94154545 C22.7449091,9.0360101 22.8741616,9.08274747 23.0030606,9.08274747 C23.1456768,9.08274747 23.287798,9.02561616 23.392303,8.91276768 C23.5297576,8.76428283 23.678101,8.63255556 23.8330909,8.52112121 C23.9403535,8.4439798 24.0760404,8.41088889 24.2143434,8.42807071 C24.8058081,8.5009697 25.3151111,8.47685859 25.6509697,8.44115152 C26.4515152,10.1208687 26.9002929,11.999202 26.9002929,13.9804848 C26.9002929,14.9336162 26.7956465,15.8627071 26.598798,16.7575758 C26.5688889,16.5611515 26.5478182,16.3556768 26.5357273,16.1412222 Z" id="Shape" stroke="#ffba1c" stroke-width="0.5" fill="#ffba1c"></path>
                                <path d="M14.3037576,24.4655657 C14.2910303,24.4337475 14.2748384,24.4026364 14.2556768,24.3743535 C14.2358788,24.3446566 14.2139596,24.3177879 14.1892828,24.2937475 C14.1651717,24.269 14.138303,24.2470808 14.1086061,24.2272828 C14.0803939,24.2081919 14.0492121,24.1919293 14.0173939,24.1784949 C13.9855758,24.1657677 13.9516364,24.1551616 13.9184747,24.148798 C13.8498182,24.1346566 13.7791111,24.1346566 13.710596,24.148798 C13.6773636,24.1551616 13.6434242,24.1657677 13.6116768,24.1784949 C13.5798586,24.1919293 13.5486768,24.2081919 13.5204646,24.2272828 C13.4914747,24.2470808 13.4638283,24.269 13.4397879,24.2937475 C13.4150404,24.3177879 13.3931212,24.3446566 13.3733939,24.3743535 C13.3542323,24.4026364 13.3380404,24.4337475 13.3246061,24.4655657 C13.3118788,24.4973838 13.3012727,24.5313232 13.2949091,24.5645556 C13.2878384,24.599202 13.284303,24.6338485 13.284303,24.6684949 C13.284303,24.7031414 13.2879091,24.7377879 13.2949091,24.7717273 C13.3012727,24.8056667 13.3118788,24.838899 13.3246061,24.8714242 C13.3380404,24.9032424 13.354303,24.9336465 13.3733939,24.9626364 C13.3931212,24.9916263 13.4151111,25.019202 13.4397879,25.0432424 C13.4638283,25.0679899 13.491404,25.0899091 13.5204646,25.109 C13.5486768,25.1280909 13.5798586,25.1450606 13.6116768,25.1577879 C13.6434242,25.1712222 13.6774343,25.1811212 13.710596,25.1881919 C13.7452424,25.1952626 13.7798889,25.198798 13.8145354,25.198798 C13.8491818,25.198798 13.8838283,25.1952626 13.9185455,25.1881919 C13.9517778,25.1811212 13.9856465,25.1712222 14.0174646,25.1577879 C14.0492828,25.1450606 14.0804646,25.1280909 14.1086768,25.109 C14.1383737,25.0899091 14.1652424,25.0679899 14.1893535,25.0432424 C14.214101,25.019202 14.2359495,24.9916263 14.2557475,24.9626364 C14.2749091,24.9336465 14.291101,24.9032424 14.3038283,24.8714242 C14.3172626,24.838899 14.3279394,24.8056667 14.334303,24.7717273 C14.3413737,24.7377879 14.3448384,24.7031414 14.3448384,24.6684949 C14.3448384,24.6338485 14.341303,24.599202 14.334303,24.5645556 C14.3278687,24.5312525 14.3171919,24.4973131 14.3037576,24.4655657 Z" id="Path" fill="#000000"></path>
                                <path d="M16.5095354,2.36288889 C16.4235556,2.28553535 15.5932424,1.60066667 12.9462525,1.38013131 C12.5558788,1.34746465 12.3908485,1.6080202 12.3494848,1.68855556 C12.1559596,2.06521212 12.3976364,2.34931313 12.763404,2.77942424 C13.1859495,3.27621212 13.8931616,4.10772727 14.0026162,4.94687879 C14.030404,5.15970707 14.183697,5.33484848 14.3909394,5.39042424 C14.4365455,5.40265657 14.4827172,5.40859596 14.5283939,5.40859596 C14.6907374,5.40859596 14.8473535,5.33378788 14.9492424,5.20092929 L16.5755051,3.07971717 C16.744,2.86010101 16.7151515,2.548 16.5095354,2.36288889 Z M14.7260202,3.74910101 C14.5129091,3.30449495 14.2323434,2.90634343 13.969596,2.57352525 C14.6185455,2.68276768 15.0631515,2.81824242 15.3528384,2.93158586 L14.7260202,3.74910101 Z" id="Shape" fill="#000000"></path>
                                <path d="M22.4366263,9.58031313 C22.4075657,9.56122222 22.3772323,9.5449596 22.3447071,9.53152525 C22.3128889,9.51809091 22.2796566,9.50819192 22.2457172,9.50112121 C22.1771313,9.48768687 22.1071313,9.48768687 22.0385455,9.50112121 C22.0046061,9.50819192 21.9713737,9.51809091 21.9395556,9.53152525 C21.9070303,9.5449596 21.8766263,9.56122222 21.8476364,9.58031313 C21.8186465,9.59940404 21.7917778,9.6220303 21.7670303,9.64607071 C21.7429899,9.67081818 21.7203636,9.69768687 21.701202,9.72667677 C21.6821111,9.75566667 21.6658485,9.78677778 21.6524848,9.81859596 C21.6390505,9.85041414 21.6291515,9.88364646 21.6220101,9.91758586 C21.6156465,9.95223232 21.6121111,9.98687879 21.6121111,10.0215253 C21.6121111,10.0561717 21.6156465,10.0908182 21.6220101,10.1247576 C21.6290101,10.1586263 21.6389091,10.1919293 21.6524141,10.2244545 C21.6657778,10.2562727 21.6821111,10.2866768 21.7011313,10.3156667 C21.7202929,10.3446566 21.7429192,10.3715253 21.7669596,10.3962727 C21.8658788,10.4952626 22.0024141,10.5518283 22.1424141,10.5518283 C22.1763535,10.5518283 22.2117071,10.5482929 22.2456465,10.5412222 C22.2795859,10.5341515 22.3128182,10.5242525 22.3446364,10.5108182 C22.3771616,10.4980909 22.4075657,10.4811212 22.4365556,10.4620303 C22.4655455,10.4429394 22.4924141,10.4210202 22.5171616,10.3962727 C22.541202,10.3715253 22.5638283,10.3446566 22.5829899,10.3156667 C22.6020808,10.2866768 22.6183434,10.2562727 22.6317071,10.2244545 C22.6451414,10.1919293 22.6550404,10.158697 22.6621818,10.1247576 C22.6692525,10.0908182 22.6720808,10.0561717 22.6720808,10.0215253 C22.6720808,9.88152525 22.6155152,9.74506061 22.5172323,9.64607071 C22.4924848,9.6220303 22.4656869,9.59940404 22.4366263,9.58031313 Z" id="Path" fill="#000000"></path>
                            </g>
                        </g>
                    </g>
                </g>
            </g>
        </g>
    </g>
</svg>
