<?xml version="1.0" encoding="UTF-8"?>
<svg width="122px" height="122px" viewBox="0 0 122 122" version="1.1" xmlns="http://www.w3.org/2000/svg" xmlns:xlink="http://www.w3.org/1999/xlink">
    <!-- Generator: Sketch 58 (84663) - https://sketch.com -->
    <title>Group</title>
    <desc>Created with Sketch.</desc>
    <g id="Page-1" stroke="none" stroke-width="1" fill="none" fill-rule="evenodd">
        <g id="Group">
            <g id="tap">
                <circle id="Oval" fill="#303030" fill-rule="nonzero" cx="61" cy="61" r="61"></circle>
                <path d="M121.935426,63.7459531 L86.675043,28.4855703 L56.2929922,64.7827148 L34.9499023,93.1007734 L63.7833633,121.934234 C95.2700859,120.519559 120.540051,95.2372031 121.935426,63.7459531 Z" id="Path" fill="#000000" fill-rule="nonzero"></path>
                <path d="M83.3186133,94.8888359 L38.6809102,94.8888359 C36.0343203,94.8888359 33.8883594,92.7433516 33.8883594,90.0962852 L33.8883594,31.9032383 C33.8883594,29.2566484 36.0343203,27.1111641 38.6809102,27.1111641 L83.3186133,27.1111641 C85.9652031,27.1111641 88.1111641,29.2566484 88.1111641,31.9032383 L88.1111641,90.0965234 C88.1111641,92.7433516 85.9656797,94.8888359 83.3186133,94.8888359 Z" id="Path" fill="#2BFF9F" fill-rule="nonzero"></path>
                <path d="M83.3186133,27.1111641 L60.7259766,27.1111641 L60.7259766,94.8888359 L83.3186133,94.8888359 C85.9652031,94.8888359 88.1111641,92.7433516 88.1111641,90.0962852 L88.1111641,31.9037148 C88.1111641,29.2566484 85.9656797,27.1111641 83.3186133,27.1111641 Z" id="Path" fill="#019954" fill-rule="nonzero"></path>
                <rect id="Rectangle" fill="#303030" fill-rule="nonzero" x="37.9965664" y="31.2887109" width="46.0066289" height="53.6759492"></rect>
                <rect id="Rectangle" fill="#272727" fill-rule="nonzero" x="60.7247852" y="31.2887109" width="23.277457" height="53.6759492"></rect>
                <circle id="Oval" fill="#272525" fill-rule="nonzero" cx="61" cy="89.3433164" r="2.25914453"></circle>
                <path d="M71.1667461,75.4057656 L50.8334922,75.4057656 C48.9620312,75.4057656 47.4446562,73.8883906 47.4446562,72.0169297 L47.4446562,72.0169297 C47.4446562,70.1454688 48.9620312,68.6280938 50.8334922,68.6280938 L71.1667461,68.6280938 C73.038207,68.6280938 74.555582,70.1454688 74.555582,72.0169297 L74.555582,72.0169297 C74.555582,73.8883906 73.038207,75.4057656 71.1667461,75.4057656 Z" id="Path" fill="#FFFFFF" fill-rule="nonzero"></path>
                <g id="Group-3" transform="translate(52.000000, 40.000000)" fill-rule="nonzero">
                    <circle id="Oval" fill="#F0BC93" cx="9.02400815" cy="4.71916667" r="4.71916667"></circle>
                    <path d="M9.02463315,2.66453526e-14 C9.01640399,2.66453526e-14 9.00827899,0.000520833333 9.00004982,0.000520833333 L9.00004982,9.4365625 C9.00827899,9.4365625 9.01640399,9.43708333 9.02463315,9.43708333 C11.6305707,9.43708333 13.743279,7.324375 13.743279,4.7184375 C13.743279,2.11260417 11.630779,2.66453526e-14 9.02463315,2.66453526e-14 Z" id="Path" fill="#C8956D"></path>
                    <path d="M-3.17967874e-13,19.3166938 C-3.17967874e-13,13.9416938 4.3571875,9.58450634 9.7321875,9.58450634 C15.1071875,9.58450634 19.464375,13.9419022 19.464375,19.3166938 L-3.17967874e-13,19.3166938 L-3.17967874e-13,19.3166938 Z" id="Path" fill="#2BFF9F"></path>
                    <path d="M9.48840127,9.41581522 C9.4801721,9.41581522 9.4720471,9.41633605 9.46381793,9.41633605 L9.46381793,19.1480027 L19.2205888,19.1480027 C19.2205888,13.7731069 14.8634013,9.41581522 9.48840127,9.41581522 Z" id="Path" fill="#019954"></path>
                </g>
                <path d="M71.1667461,68.6278555 L60.7259766,68.6278555 L60.7259766,75.4055273 L71.1665078,75.4055273 C73.0379688,75.4055273 74.5553438,73.8881523 74.5553438,72.0166914 C74.555582,70.1452305 73.038207,68.6278555 71.1667461,68.6278555 Z" id="Path" fill="#CECECE" fill-rule="nonzero"></path>
                <rect id="Rectangle" fill="#272727" x="52" y="71" width="2" height="2" rx="1"></rect>
                <rect id="Rectangle-Copy-5" fill="#272727" x="59" y="71" width="2" height="2" rx="1"></rect>
                <rect id="Rectangle-Copy-6" fill="#272727" x="66" y="71" width="2" height="2" rx="1"></rect>
                <path d="M96.1174141,80.8195195 C94.9429258,80.8195195 93.8840039,81.3068047 93.1262695,82.0878906 L93.1262695,81.8951211 C93.1262695,79.5923711 91.2598125,77.7256758 88.9568242,77.7256758 C87.7823359,77.7256758 86.7234141,78.2129609 85.9656797,78.9940469 L85.9656797,78.7250273 C85.9656797,76.4222773 84.0992227,74.555582 81.7962344,74.555582 C80.2409727,74.555582 78.8875352,75.4088672 78.1707852,76.6705664 L78.1707852,65.1689687 C78.1707852,62.8662187 76.3043281,60.9995234 74.0013398,60.9995234 C71.6985898,60.9995234 69.8316562,62.8659805 69.8316562,65.1689687 L69.8316562,93.1036328 L68.7998984,88.8086133 C68.0736172,86.4014961 65.5335391,85.0392422 63.1266602,85.7655234 C60.7197812,86.4918047 59.3572891,89.0318828 60.0835703,91.4387617 L67.3461445,121.672602 C79.8292227,120.382309 91.1928555,115.325266 100.286859,107.660234 L100.286859,84.9887266 C100.286859,82.6859766 98.4204023,80.8195195 96.1174141,80.8195195 Z" id="Path" fill="#F0BC93" fill-rule="nonzero"></path>
                <path d="M100.286859,84.9887266 C100.286859,82.6859766 98.4204023,80.8192813 96.1174141,80.8192813 C94.9429258,80.8192813 93.8840039,81.3065664 93.1262695,82.0876523 L93.1262695,81.8948828 C93.1262695,79.5921328 91.2598125,77.7254375 88.9568242,77.7254375 C87.7823359,77.7254375 86.7234141,78.2127227 85.9656797,78.9938086 L85.9656797,78.7247891 C85.9656797,78.2999336 85.9011055,77.8908047 85.7833945,77.5047891 L85.7833945,116.741609 C91.0527461,114.394539 95.9325078,111.33048 100.287098,107.660234 L100.286859,84.9887266 L100.286859,84.9887266 Z" id="Path" fill="#C8956D" fill-rule="nonzero"></path>
            </g>
            <g id="Group-21" transform="translate(92.000000, 0.000000)">
                <g id="Group-8">
                    <rect id="Rectangle" fill="#019954" x="0" y="0" width="30" height="30" rx="15"></rect>
                    <text id="1" font-family="Ubuntu-Regular, Ubuntu" font-size="18" font-weight="normal" fill="#FFFFFF">
                        <tspan x="10.424" y="22">1</tspan>
                    </text>
                </g>
            </g>
        </g>
    </g>
</svg>