<?xml version="1.0" encoding="UTF-8"?>
<svg width="125px" height="121px" viewBox="0 0 125 121" version="1.1" xmlns="http://www.w3.org/2000/svg" xmlns:xlink="http://www.w3.org/1999/xlink">
    <!-- Generator: Sketch 58 (84663) - https://sketch.com -->
    <title>Group 18</title>
    <desc>Created with Sketch.</desc>
    <g id="Page-1" stroke="none" stroke-width="1" fill="none" fill-rule="evenodd">
        <g id="Group-18">
            <g id="stats" fill-rule="nonzero">
                <circle id="Oval" fill="#303030" cx="60.4741379" cy="60.4741379" r="60.4741379"></circle>
                <g id="Group" transform="translate(24.803846, 24.803846)" fill="#000000">
                    <path d="M53.2673215,22.2315687 C53.2673215,22.2315687 51.2189963,42.8849042 50.7550463,47.5610197 L38.8638465,35.6702923 L37.4710515,39.8127707 L6.45136214,8.79284516 L5.26880927,40.5611382 L5.26361227,40.5571223 L5.26361227,40.7016933 L5.26880927,40.5616107 L5.26361227,42.5936362 L5.26361227,63.4643006 L0.138901536,64.736856 L31.3957629,95.9937173 C48.2642677,97.1817034 65.535776,91.3284683 78.4321222,78.4321222 C83.9062128,72.9580316 88.1086929,66.6949424 91.0454682,60.0097154 L53.2673215,22.2315687 Z" id="Path"></path>
                    <path d="M59.1644949,0.00614190463 L50.3307824,1.05569892 L50.3307824,1.05569892 L48.6549874,15.5125613 L91.6731237,58.5306976 C94.4870609,51.6281417 95.9722207,44.3112434 96.1290755,36.9709587 L59.1644949,0.00614190463 Z" id="Path"></path>
                </g>
                <rect id="Rectangle" fill="#2BFF9F" x="73.6317512" y="24.8099875" width="10.3375342" height="6.89168945"></rect>
                <rect id="Rectangle" fill="#019954" x="73.456707" y="24.8099875" width="1.72304048" height="15.5073643"></rect>
                <rect id="Rectangle" fill="#00C46B" x="56.4670176" y="60.4741379" width="7.20161941" height="23.2326992"></rect>
                <rect id="Rectangle" fill="#019954" x="60.2012956" y="60.4741379" width="3.46474289" height="23.2326992"></rect>
                <rect id="Rectangle" fill="#00C46B" x="70.8707289" y="47.0354144" width="7.20161941" height="36.6714228"></rect>
                <rect id="Rectangle" fill="#019954" x="74.5929593" y="47.0354144" width="3.47938897" height="36.6714228"></rect>
                <rect id="Rectangle" fill="#00C46B" x="42.0630701" y="67.1933816" width="7.20161941" height="16.5146367"></rect>
                <rect id="Rectangle" fill="#019954" x="45.8136478" y="67.1933816" width="3.45056927" height="16.5146367"></rect>
                <polygon id="Path" fill="#F0BC93" points="85.4171213 87.5041878 31.2552078 87.5041878 31.2552078 33.5966908 29.2189302 33.5966908 29.2189302 87.5041878 24.9429834 87.5041878 24.9429834 89.5404654 29.2189302 89.5404654 29.2189302 94.0708287 31.2552078 94.0708287 31.2552078 89.5404654 85.4171213 89.5404654"></polygon>
            </g>
            <g id="Group-21" transform="translate(95.000000, 0.000000)">
                <g id="Group-8-Copy">
                    <rect id="Rectangle" fill="#019954" x="0" y="0" width="30" height="30" rx="15"></rect>
                    <text id="2" font-family="Ubuntu-Regular, Ubuntu" font-size="18" font-weight="normal" fill="#FFFFFF">
                        <tspan x="10.424" y="22">2</tspan>
                    </text>
                </g>
            </g>
        </g>
    </g>
</svg>