<?xml version="1.0" encoding="UTF-8"?>
<svg width="126px" height="122px" viewBox="0 0 126 122" version="1.1" xmlns="http://www.w3.org/2000/svg" xmlns:xlink="http://www.w3.org/1999/xlink">
    <!-- Generator: Sketch 58 (84663) - https://sketch.com -->
    <title>Group 18</title>
    <desc>Created with Sketch.</desc>
    <g id="Page-1" stroke="none" stroke-width="1" fill="none" fill-rule="evenodd">
        <g id="Group-18">
            <g id="target" fill-rule="nonzero">
                <circle id="Oval" fill="#303030" cx="61" cy="61" r="61"></circle>
                <path d="M63.3470703,121.950676 C95.9482344,120.716855 122,93.9030664 122,61 C122,58.1218008 121.795793,55.2910195 121.410016,52.5188555 L93.3559727,24.4645742 L92.3413711,25.4400977 L88.8038477,21.9025742 L88.3096523,28.1834297 L85.4162031,25.2899805 L84.6348789,32.8470703 L63.4647812,53.1955742 L41.8112109,100.505363 L63.3470703,121.950676 Z" id="Path" fill="#000000"></path>
                <path d="M77.3968477,101.666746 L44.6031523,101.666746 C42.4288359,101.666746 40.6667461,99.9041797 40.6667461,97.7303398 L40.6667461,71.7143164 C40.6667461,69.54 42.4293125,67.7779102 44.6031523,67.7779102 L77.3968477,67.7779102 C79.5711641,67.7779102 81.3332539,69.5404766 81.3332539,71.7143164 L81.3332539,97.7303398 C81.3332539,99.9039414 79.5706875,101.666746 77.3968477,101.666746 Z" id="Path" fill="#F0BC93"></path>
                <path d="M77.3968477,67.7776719 L60.8632266,67.7776719 L60.8632266,101.666508 L77.3968477,101.666508 C79.5711641,101.666508 81.3332539,99.9039414 81.3332539,97.7301016 L81.3332539,71.7145547 C81.3332539,69.5404766 79.5706875,67.7776719 77.3968477,67.7776719 Z" id="Path" fill="#C8956D"></path>
                <circle id="Oval" fill="#00C46B" cx="61" cy="54.2223281" r="30.5"></circle>
                <path d="M61,23.7223281 C60.9540117,23.7223281 60.9092148,23.7256641 60.8632266,23.7256641 L60.8632266,84.7185156 C60.9092148,84.7185156 60.9540117,84.7218516 61,84.7218516 C77.8445781,84.7218516 91.5,71.0664297 91.5,54.2218516 C91.5,37.3772734 77.8445781,23.7223281 61,23.7223281 Z" id="Path" fill="#019954"></path>
                <circle id="Oval" fill="#E6F3FF" cx="61" cy="54.2223281" r="20.3332539"></circle>
                <path d="M61,33.8888359 C60.9540117,33.8888359 60.9092148,33.8921719 60.8632266,33.8921719 L60.8632266,74.5517695 C60.9092148,74.5522461 60.9540117,74.5551055 61,74.5551055 C72.2297187,74.5551055 81.3332539,65.4515703 81.3332539,54.2218516 C81.3332539,42.9921328 72.2297187,33.8888359 61,33.8888359 Z" id="Path" fill="#CFDBE6"></path>
                <circle id="Oval" fill="#00C46B" cx="61" cy="54.2223281" r="13.555582"></circle>
                <path d="M61,40.6667461 C60.9540117,40.6667461 60.9087383,40.6696055 60.8632266,40.670082 L60.8632266,67.7740977 C60.9087383,67.7745742 60.9540117,67.7774336 61,67.7774336 C68.4863203,67.7774336 74.555582,61.7081719 74.555582,54.2218516 C74.555582,46.7355312 68.4863203,40.6667461 61,40.6667461 Z" id="Path" fill="#019954"></path>
                <circle id="Oval" fill="#E6F3FF" cx="61" cy="54.2223281" r="6.77767187"></circle>
                <path d="M61,47.444418 C60.9540117,47.444418 60.9092148,47.4506133 60.8632266,47.4513281 L60.8632266,60.9928516 C60.9092148,60.9935664 60.9540117,60.9997617 61,60.9997617 C64.7433984,60.9997617 67.7776719,57.9654883 67.7776719,54.2220898 C67.7776719,50.4786914 64.7433984,47.444418 61,47.444418 Z" id="Path" fill="#CFDBE6"></path>
                <polygon id="Path" fill="#F0BC93" points="70.1676328 52.4476094 65.3731758 52.4476094 84.9346367 32.8856719 91.3710898 32.8861484 91.3710898 31.2431992 86.5775859 31.2431992 88.3222812 29.4985039 94.7582578 29.4985039 94.7582578 27.855793 89.9649922 27.8553164 93.3559727 24.4645742 92.1941133 23.3027148 88.8045625 26.6925039 88.8036094 21.9025742 87.1606602 21.9028125 87.161375 28.3356914 85.416918 30.0801484 85.4159648 25.2902188 83.7730156 25.2902188 83.7737305 31.7228594 64.2113164 51.2855117 64.2113164 46.4910547 62.5683672 46.4910547 62.5683672 54.0907969 70.1676328 54.0907969"></polygon>
            </g>
            <g id="Group-21" transform="translate(96.000000, 0.000000)">
                <g id="Group-8-Copy-3">
                    <rect id="Rectangle" fill="#019954" x="0" y="0" width="30" height="30" rx="15"></rect>
                    <text id="4" font-family="Ubuntu-Regular, Ubuntu" font-size="18" font-weight="normal" fill="#FFFFFF">
                        <tspan x="10.424" y="22">4</tspan>
                    </text>
                </g>
            </g>
        </g>
    </g>
</svg>