<?xml version="1.0" encoding="UTF-8"?>
<svg width="141px" height="20px" viewBox="0 0 141 20" version="1.1" xmlns="http://www.w3.org/2000/svg" xmlns:xlink="http://www.w3.org/1999/xlink">
    <!-- Generator: Sketch 54.1 (76490) - https://sketchapp.com -->
    <title>pr-logo/forbes copy 2</title>
    <desc>Created with Sketch.</desc>
    <g id="New-Pages" stroke="none" stroke-width="1" fill="none" fill-rule="evenodd">
        <g id="Homepage---Desktop" transform="translate(-914.000000, -1224.000000)" fill="#FFFFFF">
            <g id="content" transform="translate(-20.000000, 1146.000000)">
                <g id="pr" transform="translate(740.000000, 0.000000)">
                    <g id="Stacked-Group" transform="translate(0.000000, 48.000000)">
                        <g id="pr-logo/tech-crunch" transform="translate(184.000000, 0.000000)">
                            <g id="techcrunch-logo" transform="translate(10.000000, 30.000000)">
                                <g id="Group" transform="translate(46.542208, 4.427481)" fill-rule="nonzero">
                                    <polygon id="Path" points="6.46372078 3.42061069 6.46372078 12.2236641 3.2489513 12.2236641 3.2489513 3.42061069 0.00122077922 3.42061069 0.00122077922 0.618625954 9.7112987 0.618625954 9.7112987 3.42061069"></polygon>
                                    <path d="M17.2157338,8.7259542 L12.1124188,8.7259542 C12.2119123,9.68732824 12.7748442,10.1177099 13.5869675,10.1177099 C14.3491916,10.1177099 14.9792662,9.9519084 15.8408312,9.50427481 L16.9837857,11.4109924 C15.907211,12.0406107 14.7964545,12.4056489 13.4381851,12.4056489 C10.8197662,12.4056489 9.37848377,10.5482443 9.37848377,7.87923664 C9.37848377,4.87923664 11.0681948,3.33740458 13.3550195,3.33740458 C15.7414903,3.33740458 17.2329773,4.91236641 17.2329773,8.14458015 C17.2326721,8.39419847 17.2326721,8.57633588 17.2157338,8.7259542 Z M13.2721591,5.54259542 C12.5927955,5.54259542 12.2117597,6.00656489 12.1122662,6.86870229 L14.5980779,6.86870229 C14.4485325,5.99007634 14.1500519,5.54259542 13.2721591,5.54259542 Z" id="Shape"></path>
                                    <path d="M22.7647857,12.4058015 C20.2135097,12.4058015 18.6889091,10.7815267 18.6889091,7.8470229 C18.6889091,5.17770992 20.0476364,3.33755725 22.8311656,3.33755725 C24.4715877,3.33755725 25.416776,4.09984733 26.1785422,5.32687023 L24.1238182,6.88564885 C23.7098214,6.12229008 23.4275162,5.7578626 22.7818766,5.7578626 C22.0191948,5.7578626 21.6381591,6.52061069 21.6381591,7.89633588 C21.6381591,9.27312977 22.0523084,9.98519084 22.8642792,9.98519084 C23.4275162,9.98519084 23.8254903,9.67038168 24.3722468,8.85801527 L26.2610974,10.3331298 C25.25075,11.8254962 24.3058669,12.4058015 22.7647857,12.4058015 Z" id="Path"></path>
                                    <path d="M32.9372338,12.2235115 L32.9372338,7.28290076 C32.9372338,6.15541985 32.5560455,5.85725191 31.9429091,5.85725191 C31.3128344,5.85725191 30.9316461,6.15541985 30.9316461,7.24977099 L30.9316461,12.2235115 L27.9491299,12.2235115 L27.9491299,1.33160305 L30.9316461,0.137862595 L30.9316461,4.09969466 C31.4785552,3.68534351 32.0916916,3.33740458 33.1189773,3.33740458 C35.0249188,3.33740458 35.9363831,4.61374046 35.9363831,6.90183206 L35.9363831,12.2235115 L32.9372338,12.2235115 Z" id="Path"></path>
                                    <path d="M43.0759578,12.4058015 C39.6290877,12.4058015 37.789526,9.85236641 37.789526,6.42122137 C37.789526,2.69099237 39.9768571,0.436335878 43.0919805,0.436335878 C45.9425,0.436335878 47.0695844,1.66305344 47.8644643,3.85145038 L44.9484805,4.99541985 C44.533263,3.9178626 44.1363571,3.23801527 43.0759578,3.23801527 C41.7338636,3.23801527 41.1538409,4.58076336 41.1538409,6.42122137 C41.1538409,8.19496183 41.7167727,9.60412214 43.1090714,9.60412214 C44.1194188,9.60412214 44.5506591,9.05709924 45.1798182,7.96274809 L47.8980357,9.40503817 C47.1188734,10.9305344 45.8263734,12.4058015 43.0759578,12.4058015 Z" id="Path"></path>
                                    <path d="M55.2349188,6.80229008 C54.8537305,6.38793893 54.4234058,6.0729771 53.8433831,6.0729771 C53.1138149,6.0729771 52.6663994,6.42122137 52.6663994,7.48198473 L52.6663994,12.2236641 L49.6838831,12.2236641 L49.6838831,3.51969466 L52.6663994,3.51969466 L52.6663994,4.14977099 C53.1801948,3.65236641 53.7602175,3.33755725 54.5228994,3.33755725 C55.1523636,3.33755725 55.5832987,3.48656489 55.9312208,3.70229008 L55.2349188,6.80229008 Z" id="Path"></path>
                                    <path d="M62.3259675,12.2235115 L62.3259675,11.6425954 C61.7950812,12.0569466 61.1656169,12.4056489 60.1555747,12.4056489 C58.2496331,12.4056489 57.3378636,11.1294656 57.3378636,8.84076336 L57.3378636,3.51938931 L60.3373182,3.51938931 L60.3373182,8.46045802 C60.3373182,9.58687023 60.7182013,9.88549618 61.3313377,9.88549618 C61.9447792,9.88549618 62.3259675,9.58687023 62.3259675,8.49251908 L62.3259675,3.51938931 L65.3251169,3.51938931 L65.3251169,12.2233588 L62.3259675,12.2233588 L62.3259675,12.2235115 Z" id="Path"></path>
                                    <path d="M72.4646916,12.2235115 L72.4646916,7.28290076 C72.4646916,6.15541985 72.0838084,5.85725191 71.4703669,5.85725191 C70.8402922,5.85725191 70.4594091,6.15541985 70.4594091,7.24977099 L70.4594091,12.2235115 L67.4768929,12.2235115 L67.4768929,3.51954198 L70.4594091,3.51954198 L70.4594091,4.09969466 C71.006013,3.68534351 71.6191494,3.33740458 72.6464351,3.33740458 C74.5523766,3.33740458 75.4638409,4.61374046 75.4638409,6.90183206 L75.4638409,12.2235115 L72.4646916,12.2235115 Z" id="Path"></path>
                                    <path d="M81.2768864,12.4058015 C78.7256104,12.4058015 77.2005519,10.7815267 77.2005519,7.8470229 C77.2005519,5.17770992 78.5595844,3.33755725 81.342961,3.33755725 C82.9836883,3.33755725 83.9284188,4.09984733 84.6906429,5.32687023 L82.6359188,6.88564885 C82.2216169,6.12229008 81.9394643,5.7578626 81.2938247,5.7578626 C80.5311429,5.7578626 80.1502597,6.52061069 80.1502597,7.89633588 C80.1502597,9.27312977 80.5642565,9.98519084 81.3763799,9.98519084 C81.9393117,9.98519084 82.3372857,9.67038168 82.8841948,8.85801527 L84.7731981,10.3331298 C83.7625455,11.8254962 82.8178149,12.4058015 81.2768864,12.4058015 Z" id="Path"></path>
                                    <path d="M91.4490292,12.2235115 L91.4490292,7.28290076 C91.4490292,6.15541985 91.0678409,5.85725191 90.4547045,5.85725191 C89.8246299,5.85725191 89.4437468,6.15541985 89.4437468,7.24977099 L89.4437468,12.2235115 L86.4612305,12.2235115 L86.4612305,1.33160305 L89.4437468,0.137862595 L89.4437468,4.09969466 C89.9906558,3.68534351 90.6037922,3.33740458 91.6310779,3.33740458 C93.5367143,3.33740458 94.4484838,4.61374046 94.4484838,6.90183206 L94.4484838,12.2235115 L91.4490292,12.2235115 Z" id="Path"></path>
                                </g>
                                <g id="Group" fill-rule="nonzero">
                                    <polygon id="Path" points="0 0 0 6.71755725 6.71428571 6.71755725 6.71428571 20 13.275974 20 13.275974 6.71755725 19.9902597 6.71755725 19.9902597 0"></polygon>
                                    <polygon id="Path" points="26.3993506 13.5877863 26.3993506 6.71755725 19.9902597 6.71755725 19.9902597 20 39.6753247 20 39.6753247 13.5877863"></polygon>
                                    <rect id="Rectangle" x="26.3993506" y="0" width="13.275974" height="6.71755725"></rect>
                                </g>
                            </g>
                        </g>
                    </g>
                </g>
            </g>
        </g>
    </g>
</svg>