<?xml version="1.0" encoding="UTF-8"?>
<svg width="67px" height="42px" viewBox="0 0 67 42" version="1.1" xmlns="http://www.w3.org/2000/svg" xmlns:xlink="http://www.w3.org/1999/xlink">
    <!-- Generator: Sketch 58 (84663) - https://sketch.com -->
    <title>visa 2</title>
    <desc>Created with Sketch.</desc>
    <g id="sources" stroke="none" stroke-width="1" fill="none" fill-rule="evenodd">
        <g id="Compliant-LP-Indices" transform="translate(-250.000000, -3497.000000)" fill-rule="nonzero">
            <g id="footer/desktop" transform="translate(-1.000000, 3459.000000)">
                <g id="footer">
                    <g id="Group" transform="translate(0.000000, 0.316503)">
                        <g id="Group-22" transform="translate(0.000000, 0.683497)">
                            <g id="visa-2" transform="translate(251.000000, 37.000000)">
                                <polygon id="Path" fill="#FFFFFF" points="0 41.8 67 41.8 67 1.8 0 1.8"></polygon>
                                <polygon id="Path" fill="#005198" points="11.3660714 14.8970939 15.2850816 29.4 19.8409308 29.4 26.9196429 12.6 22.3066414 12.6 17.8406027 24.0054312 16.0117313 15.0811815"></polygon>
                                <polygon id="Path" fill="#005198" points="28.4772054 12 25.7232143 29.4 30.0816327 29.4 32.9017857 12"></polygon>
                                <path d="M45.430326,16.2838174 L46.0625,12.7460581 C46.0625,12.7460581 44.1577678,12 41.8671631,12 C39.5765585,12 34.6176867,13.4279391 34.6176867,17.5914246 C34.6176867,21.7549101 40.7834362,21.9394191 40.7834362,24.2417704 C40.7834362,26.5441217 35.2498608,26.2954357 33.5996402,24.8033195 L32.9017857,28.4694329 C32.9017857,28.4694329 35.3812216,29.4 37.6061458,29.4 C39.8310701,29.4 45.3646455,28.9026279 45.3646455,23.4957123 C45.3646455,18.7706777 39.198896,19.7012448 39.198896,16.8453665 C39.198896,16.8453665 39.8310701,13.9814661 45.430326,16.2838174 L45.430326,16.2838174 Z" id="Path" fill="#005198"></path>
                                <path d="M44.8660714,29.4 L49.6612618,29.4 L50.4948491,26.9654511 L56.3712269,26.9654511 L56.858174,29.3758157 L61.0178571,29.3758157 L57.2048142,12.6 L53.3670113,12.6 C53.3670113,12.6 51.9639435,12.753167 51.320183,14.4138196 C50.7176892,15.9857965 44.8660714,29.4 44.8660714,29.4 L44.8660714,29.4 Z" id="Path" fill="#005198"></path>
                                <polygon id="Path" fill="#FFFFFF" points="55.6339286 23.4 52.0446429 23.4 54.2832037 16.8"></polygon>
                                <path d="M17.3482143,21.6 L15.9826954,15.0545455 C15.9826954,15.0545455 15.801723,12.6 13.9837731,12.6 L6.58035714,12.6 L6.58035714,12.9415711 C6.58858316,12.9495146 13.9097389,14.1172109 17.3482143,21.6 L17.3482143,21.6 Z" id="Path" fill="#005198"></path>
                                <rect id="Rectangle" fill="#F6A800" x="0" y="31.8" width="67" height="10.2"></rect>
                                <rect id="Rectangle" fill="#005198" x="0" y="0" width="67" height="10.2"></rect>
                            </g>
                        </g>
                    </g>
                </g>
            </g>
        </g>
    </g>
</svg>