<?xml version="1.0" encoding="UTF-8"?>
<svg width="30px" height="27px" viewBox="0 0 30 27" version="1.1" xmlns="http://www.w3.org/2000/svg" xmlns:xlink="http://www.w3.org/1999/xlink">
    <!-- Generator: Sketch 58 (84663) - https://sketch.com -->
    <title>wallet (1)</title>
    <desc>Created with Sketch.</desc>
    <g id="sources" stroke="none" stroke-width="1" fill="none" fill-rule="evenodd">
        <g id="Compliant-LP-Commodities-GOLD" transform="translate(-853.000000, -653.000000)" fill="#ffba1c" fill-rule="nonzero">
            <g id="CORE-FEATURES">
                <g id="Why-invest" transform="translate(0.000000, 602.000000)">
                    <g id="Group-15" transform="translate(750.000000, 50.000000)">
                        <g id="item-1" transform="translate(0.086111, 0.500000)">
                            <g id="wallet-(1)" transform="translate(102.913889, 0.500000)">
                                <path d="M29.0625,13.1264631 L28.125,13.1264631 L28.125,8.43896313 C28.125,7.92146313 27.705,7.50146313 27.1875,7.50146313 L26.25,7.50146313 L26.25,4.68896313 C26.25,4.17146313 25.83,3.75146313 25.3125,3.75146313 L22.141875,3.75146313 L20.525625,0.518963127 C20.293125,0.0539631269 19.730625,-0.131661873 19.2675,0.0989631269 L17.1075,1.18083813 L16.775625,0.518963127 C16.543125,0.0558381269 15.980625,-0.131661873 15.5175,0.100838127 L8.21625,3.75146313 L2.8125,3.75146313 C1.261875,3.75146313 0,5.01333813 0,6.56396313 L0,23.4389631 C0,24.9895881 1.261875,26.2514631 2.8125,26.2514631 L27.1875,26.2514631 C27.705,26.2514631 28.125,25.8314631 28.125,25.3139631 L28.125,20.6264631 L29.0625,20.6264631 C29.58,20.6264631 30,20.2064631 30,19.6889631 L30,14.0639631 C30,13.5464631 29.58,13.1264631 29.0625,13.1264631 Z M24.375,5.62646313 L24.375,7.50146313 L24.016875,7.50146313 L23.079375,5.62646313 L24.375,5.62646313 Z M19.2675,2.19708813 L21.920625,7.50146313 L20.266875,7.50146313 L17.945625,2.85708813 L19.2675,2.19708813 Z M15.5175,2.19708813 L18.170625,7.50146313 L4.90875,7.50146313 L15.5175,2.19708813 Z M2.8125,5.62646313 L4.46625,5.62646313 L1.95,6.88458813 C1.9125,6.78146313 1.875,6.67646313 1.875,6.56396313 C1.875,6.04646313 2.295,5.62646313 2.8125,5.62646313 Z M26.25,24.3764631 L2.8125,24.3764631 C2.295,24.3764631 1.875,23.9564631 1.875,23.4389631 L1.875,9.19646313 C2.1825,9.30708813 2.4975,9.37646313 2.8125,9.37646313 L26.25,9.37646313 L26.25,13.1264631 L22.5,13.1264631 C20.431875,13.1264631 18.75,14.8083381 18.75,16.8764631 C18.75,18.9445881 20.431875,20.6264631 22.5,20.6264631 L26.25,20.6264631 L26.25,24.3764631 Z M28.125,18.7514631 L22.5,18.7514631 C21.466875,18.7514631 20.625,17.9095881 20.625,16.8764631 C20.625,15.8433381 21.466875,15.0014631 22.5,15.0014631 L28.125,15.0014631 L28.125,18.7514631 Z" id="Shape"></path>
                            </g>
                        </g>
                    </g>
                </g>
            </g>
        </g>
    </g>
</svg>
