<?xml version="1.0" encoding="UTF-8"?>
<svg width="62px" height="63px" viewBox="0 0 62 63" version="1.1" xmlns="http://www.w3.org/2000/svg" xmlns:xlink="http://www.w3.org/1999/xlink">
    <!-- Generator: Sketch 58 (84663) - https://sketch.com -->
    <title>wire-transfer-logo</title>
    <desc>Created with Sketch.</desc>
    <g id="sources" stroke="none" stroke-width="1" fill="none" fill-rule="evenodd">
        <g id="Compliant-LP-Indices" transform="translate(-1127.000000, -3483.000000)" fill-rule="nonzero">
            <g id="footer/desktop" transform="translate(-1.000000, 3459.000000)">
                <g id="footer">
                    <g id="Group" transform="translate(0.000000, 0.316503)">
                        <g id="Group-22" transform="translate(0.000000, 0.683497)">
                            <g id="wire-transfer-logo" transform="translate(1128.000000, 23.500000)">
                                <path d="M18.6019375,34.917625 C16.433875,44.10525 16.1568125,45.550625 15.8778125,47.1355 L15.8313125,47.1355 C15.46125,44.97325 15.294625,44.0878125 13.341625,34.917625 L9.641,34.917625 C7.870125,43.6886875 7.6163125,45.387875 7.3140625,47.1355 L7.2695,47.1355 C6.96725,45.2270625 6.754125,44.062625 4.6131875,34.917625 L0.8931875,34.917625 L5.6168125,51.626625 L8.87375,51.626625 C10.667875,43.016375 10.943,41.8054375 11.458375,38.5930625 L11.5029375,38.5930625 C12.059,41.8015625 12.365125,43.4329375 14.0875625,51.626625 L17.4375,51.626625 L22.14175,34.917625 L18.6019375,34.917625 Z" id="Path" fill="#FFFFFF"></path>
                                <path d="M15.4050625,59.988875 C15.4050625,58.5028125 15.0505,58.260625 14.395625,57.9758125 C15.18225,57.7065 15.6259375,56.9566875 15.6259375,56.079 C15.6259375,55.397 15.240375,53.8315 13.124625,53.8315 L9.102375,53.8315 L9.102375,61.7810625 L10.73375,61.7810625 L10.73375,58.671375 L12.4484375,58.671375 C13.67875,58.671375 13.7465625,59.089875 13.7465625,60.1768125 C13.7465625,60.9983125 13.8105,61.407125 13.9209375,61.7810625 L15.759625,61.7810625 L15.759625,61.57375 C15.407,61.4439375 15.407,61.1571875 15.4050625,59.988875 Z M12.679,57.338375 L10.73375,57.338375 L10.73375,55.207125 L12.803,55.207125 C13.775625,55.207125 13.9655,55.827125 13.9655,56.2475625 C13.9655,57.036125 13.5450625,57.338375 12.679,57.338375 Z" id="Shape" fill="#FFFFFF"></path>
                                <polygon id="Path" fill="#FFFFFF" points="1.6449375 53.835375 1.646875 55.242 4.049375 55.242 4.049375 61.7849375 5.7059375 61.7849375 5.7059375 55.242 8.110375 55.242 8.110375 53.835375"></polygon>
                                <polygon id="Path" fill="#FFFFFF" points="50.97175 48.666125 50.97175 44.33775 59.113125 44.33775 59.113125 41.385 50.97175 41.385 50.97175 37.8761875 59.8358125 37.8761875 59.8358125 34.9215 47.54625 34.9215 47.54625 51.6305 60.229125 51.6305 60.229125 48.666125"></polygon>
                                <polygon id="Path" fill="#FFFFFF" points="45.9439375 55.2400625 45.9439375 53.8315 40.2864375 53.8315 40.288375 61.7888125 41.9488125 61.7888125 41.9488125 58.44275 45.446 58.44275 45.446 57.0341875 41.9488125 57.0341875 41.9488125 55.2400625"></polygon>
                                <path d="M43.977375,47.85625 C43.977375,44.736875 43.2353125,44.2215 41.861625,43.617 C43.51625,43.0609375 44.44625,41.474125 44.44625,39.6393125 C44.44625,38.1939375 43.628625,34.9156875 39.1820625,34.9156875 L30.7384375,34.9156875 L30.7384375,51.6246875 L34.1639375,51.6246875 L34.1639375,45.0798125 L37.769625,45.0798125 C40.350375,45.0798125 40.489875,45.96525 40.489875,48.2495625 C40.4879375,49.968125 40.629375,50.83225 40.8638125,51.6285625 L44.7233125,51.6285625 L44.7233125,51.184875 C43.977375,50.905875 43.977375,50.2994375 43.977375,47.85625 Z M38.254,42.2704375 L34.1639375,42.2704375 L34.1639375,37.800625 L38.5116875,37.800625 C40.5635,37.800625 40.9568125,39.102625 40.9568125,39.9880625 C40.954875,41.6388125 40.0694375,42.2685 38.254,42.2704375 Z" id="Shape" fill="#FFFFFF"></path>
                                <polygon id="Path" fill="#FFFFFF" points="48.689375 60.3744375 48.689375 58.3206875 52.564375 58.3206875 52.564375 56.912125 48.689375 56.912125 48.689375 55.2400625 52.90925 55.2400625 52.90925 53.8334375 47.061875 53.8334375 47.061875 61.783 53.0971875 61.783 53.0971875 60.3744375"></polygon>
                                <path d="M60.75225,59.988875 C60.75225,58.5028125 60.3938125,58.260625 59.7428125,57.9758125 C60.531375,57.7065 60.977,56.9566875 60.977,56.079 C60.977,55.397 60.5875625,53.8315 58.4718125,53.8315 L54.4534375,53.8315 L54.4534375,61.7810625 L56.0848125,61.7810625 L56.0848125,58.671375 L57.7995,58.671375 C59.0259375,58.671375 59.097625,59.089875 59.097625,60.1768125 C59.097625,60.9983125 59.1615625,61.407125 59.272,61.7810625 L61.1068125,61.7810625 L61.1068125,61.57375 C60.7541875,61.4439375 60.7541875,61.1571875 60.75225,59.988875 Z M58.0300625,57.338375 L56.0848125,57.338375 L56.0848125,55.207125 L58.1501875,55.207125 C59.1266875,55.207125 59.3165625,55.827125 59.3165625,56.2475625 C59.3165625,57.036125 58.896125,57.338375 58.0300625,57.338375 Z" id="Shape" fill="#FFFFFF"></path>
                                <path d="M36.932625,57.2589375 L34.999,56.7823125 C34.66575,56.70675 34.1523125,56.5730625 34.1523125,55.9530625 C34.1523125,55.230375 34.9118125,54.9998125 35.537625,54.9998125 C36.99075,54.9998125 37.118625,55.8465 37.1709375,56.19525 L38.75775,56.19525 C38.746125,55.222625 38.095125,53.626125 35.6558125,53.626125 C33.077,53.626125 32.60425,55.191625 32.60425,56.0770625 C32.60425,57.826625 33.8423125,58.113375 35.1288125,58.41175 L35.9774375,58.61325 C36.824125,58.81475 37.4189375,58.9775 37.4189375,59.5975 C37.4189375,60.44225 36.54125,60.6263125 35.7604375,60.6263125 C34.3073125,60.6263125 34.0845,59.7835 34.072875,59.3436875 L32.488,59.3436875 C32.488,60.3279375 32.984,62 35.886375,62 C36.58,62 39.0193125,61.7888125 39.0193125,59.3979375 C39.017375,57.97 38.0234375,57.524375 36.932625,57.2589375 Z" id="Path" fill="#FFFFFF"></path>
                                <rect id="Rectangle" fill="#FFFFFF" x="23.9881875" y="34.91375" width="3.4894375" height="16.709"></rect>
                                <path d="M21.0199375,53.835375 L19.099875,53.835375 L16.2653125,61.786875 L18.0168125,61.786875 L18.569,60.14775 L21.502375,60.14775 L22.013875,61.786875 L23.819625,61.786875 L21.0199375,53.835375 Z M19.014625,58.776 L20.0356875,55.6314375 L20.04925,55.6314375 L21.04125,58.776 L19.014625,58.776 Z" id="Shape" fill="#FFFFFF"></path>
                                <polygon id="Path" fill="#FFFFFF" points="29.740625 53.835375 29.740625 59.3746875 29.72125 59.3746875 26.5611875 53.835375 24.8135625 53.835375 24.8135625 61.786875 26.361625 61.786875 26.361625 56.11775 26.384875 56.11775 29.62825 61.786875 31.2925625 61.786875 31.2925625 53.835375"></polygon>
                                <path d="M43.2740625,10.9643125 C43.233375,10.2629375 43.2081875,9.861875 43.2081875,9.861875 C43.2081875,9.861875 43.148125,10.2590625 43.0338125,10.954625 C42.985375,11.2975625 42.9136875,11.714125 42.8361875,12.1926875 C42.78,12.6693125 42.5494375,13.178875 42.3925,13.74075 C42.22975,14.302625 42.032125,14.899375 41.706625,15.480625 C41.4063125,16.069625 41.1389375,16.70125 40.683625,17.2573125 C40.482125,17.542125 40.2748125,17.83275 40.0694375,18.12725 C39.8505,18.410125 39.567625,18.6561875 39.319625,18.9235625 C38.8410625,19.4776875 38.254,19.9310625 37.6708125,20.3766875 C37.1205625,20.8455625 36.4269375,21.169125 35.8456875,21.556625 C35.173375,21.8491875 34.584375,22.2095625 33.92175,22.4265625 C33.290125,22.6784375 32.66625,22.8935 32.0520625,23.0504375 C31.4591875,23.2441875 30.864375,23.3371875 30.3393125,23.4650625 C30.004125,23.525125 29.694125,23.5755 29.3976875,23.6200625 C29.42675,23.529 29.4635625,23.44375 29.4945625,23.3526875 C29.7755,22.5040625 29.9866875,21.6166875 30.1261875,20.68475 C30.1843125,20.212 30.23275,19.7334375 30.2656875,19.2451875 C30.2928125,18.751125 30.283125,18.2376875 30.23275,17.7029375 C29.7348125,17.91025 29.2795,18.1446875 28.8513125,18.394625 C28.4366875,18.6523125 28.0375625,18.9196875 27.648125,19.19675 C26.888625,19.7566875 26.2046875,20.35925 25.586625,21.0025 C24.3369375,22.2831875 23.3178125,23.703375 22.4691875,25.2243125 L22.3606875,25.41225 C21.8375625,26.35775 21.94025,27.5686875 22.703625,28.4173125 C23.711125,29.53525 24.8155,30.5756875 26.098125,31.465 C26.7355625,31.9125625 27.4175625,32.32525 28.159625,32.6914375 C28.9016875,33.05375 29.667,33.398625 30.577625,33.6195 C30.531125,32.685625 30.34125,31.8660625 30.132,31.0678125 C29.926625,30.290875 29.65925,29.5643125 29.3511875,28.8668125 C30.03125,28.6459375 30.85275,28.3398125 31.7808125,27.9465 C32.3795,27.65975 33.0363125,27.392375 33.6950625,27.0106875 C34.3654375,26.6658125 35.0435625,26.24925 35.7275,25.788125 C36.4269375,25.3676875 37.072125,24.77675 37.7560625,24.2633125 C38.3721875,23.64525 39.0503125,23.098875 39.59475,22.401375 C40.1585625,21.7290625 40.7049375,21.0586875 41.1234375,20.3030625 C41.3365625,19.9349375 41.5806875,19.592 41.7589375,19.2141875 C41.91975,18.8325 42.0825,18.456625 42.2375,18.084625 C42.594,17.36775 42.745125,16.6024375 42.923375,15.9049375 C43.1345625,15.2151875 43.2043125,14.539 43.245,13.919 C43.2856875,13.299 43.39225,12.7468125 43.3515625,12.2469375 C43.3166875,11.752875 43.29925,11.318875 43.2740625,10.9643125 Z" id="Path" fill="#00C863"></path>
                                <path d="M39.14525,5.436625 C38.1706875,4.289625 37.0973125,3.21625 35.8418125,2.2881875 C35.2179375,1.8193125 34.5495,1.38725 33.8190625,0.99975 C33.08475,0.6180625 32.3271875,0.251875 31.42625,0 C31.4436875,0.9358125 31.608375,1.75925 31.7963125,2.56525 C31.980375,3.348 32.2264375,4.0823125 32.5131875,4.7875625 C31.825375,4.9890625 30.99225,5.2719375 30.0564375,5.6361875 C29.4480625,5.9055 28.7835,6.1515625 28.1150625,6.513875 C27.435,6.839375 26.7433125,7.234625 26.0458125,7.676375 C25.33475,8.0774375 24.672125,8.6470625 23.9765625,9.1391875 C23.3410625,9.7398125 22.6455,10.2629375 22.0816875,10.946875 C21.5004375,11.60175 20.9308125,12.2546875 20.491,12.9986875 C20.26625,13.361 20.0105,13.6961875 19.8225625,14.06625 C19.64625,14.442125 19.47575,14.8160625 19.3071875,15.1803125 C18.929375,15.8855625 18.758875,16.6450625 18.5593125,17.33675 C18.3268125,18.0206875 18.2415625,18.693 18.1795625,19.313 C18.1253125,19.9310625 17.9955,20.479375 18.0265,20.9811875 C18.042,21.4771875 18.0555625,21.90925 18.06525,22.26575 C18.0885,22.967125 18.09625,23.370125 18.09625,23.370125 C18.09625,23.370125 18.169875,22.9729375 18.2996875,22.28125 C18.363625,21.94025 18.4430625,21.5275625 18.5321875,21.0509375 C18.6058125,20.57625 18.8499375,20.0725 19.022375,19.5164375 C19.2045,18.9584375 19.41375,18.3675 19.7644375,17.797875 C20.0821875,17.216625 20.3689375,16.59275 20.83975,16.05025 C21.0509375,15.7731875 21.266,15.488375 21.483,15.201625 C21.7096875,14.922625 21.998375,14.68625 22.25025,14.426625 C22.7404375,13.8899375 23.3410625,13.454 23.935875,13.0258125 C24.5035625,12.574375 25.1971875,12.2701875 25.795875,11.900125 C26.4759375,11.6269375 27.0765625,11.284 27.7469375,11.0883125 C28.38825,10.8558125 29.0179375,10.660125 29.6340625,10.520625 C30.23275,10.3443125 30.833375,10.26875 31.360375,10.156375 C31.6975,10.1079375 32.011375,10.06725 32.305875,10.0304375 C32.271,10.1195625 32.2380625,10.2048125 32.20125,10.2939375 C31.895125,11.132875 31.65875,12.0144375 31.4901875,12.9425 C31.4165625,13.4133125 31.352625,13.891875 31.3041875,14.3781875 C31.2654375,14.87225 31.2576875,15.38375 31.2925625,15.922375 C31.7963125,15.7305625 32.2555,15.5096875 32.693375,15.271375 C33.11575,15.0253125 33.5284375,14.7695625 33.92175,14.508 C34.700625,13.9713125 35.402,13.388125 36.041375,12.7623125 C37.324,11.5184375 38.3876875,10.1311875 39.28475,8.6354375 L39.397125,8.4494375 C39.947375,7.521375 39.8834375,6.3065625 39.14525,5.436625 Z" id="Path" fill="#00C863"></path>
                            </g>
                        </g>
                    </g>
                </g>
            </g>
        </g>
    </g>
</svg>